<svg xmlns="http://www.w3.org/2000/svg" viewBox="0 0 512 512" style="height: 512px; width: 512px;"><rect fill="#000000" fill-opacity="1" height="512" width="512" rx="32" ry="32"></rect><g class="" transform="translate(-39,41)" style=""><g><path d="M200.02 282.864C200.667 288.627 199.215 299.608 195.225 306.601C187.77 319.581 124.817 425.971 101.642 465.118C97.657 471.896 87.997 472.281 83.486 465.841L44.499 409.905C41.863 406.17 42.157 401.109 45.209 397.705L121.637 331.382C124.607 328.078 128.849 326.203 133.292 326.234L138.178 326.265C144.779 326.315 150.435 321.554 151.513 315.041L200.017 282.838Z" class="" fill="#000000" fill-opacity="1"></path><path d="M281.49 194.517L296.208 216.687C299.046 220.962 297.881 226.729 293.606 229.567L267.927 246.617C267.927 246.617 264.074 256.478 264.665 260.69C265.255 264.902 268.752 275.886 268.23 278.877C267.708 281.868 265.114 285.947 265.718 288.054C266.322 290.161 272.078 296.438 271.893 297.356C270.873 298.811 269.545 300.024 268.005 300.91C264.236 303.555 259.632 304.736 255.055 304.232C245.882 302.923 242.779 303.079 241.008 301.65C239.238 300.222 232.738 298.234 231.49 288.964C230.24 279.694 234.788 264.316 234.64 262.276C234.492 260.237 234.452 252.809 230.155 248.441C225.857 244.073 215.325 250.873 205.895 257.039L153.482 291.837L135.6 264.903L144.654 258.892L143.716 242.495C143.843 238.142 146.976 234.462 151.253 233.641L176.649 228.757C178.545 228.392 180.476 229.201 181.546 230.808L183.194 233.29L303.17 153.636L315.382 172.029L281.505 194.52Z" class="selected" fill="#ffffff" fill-opacity="1" stroke="#ffffff" stroke-opacity="1" stroke-width="8"></path><path d="M289.53 215.214C286.925 211.291 281.633 210.221 277.709 212.826L264.632 221.509C260.709 224.114 259.64 229.405 262.244 233.329L263.071 234.576C265.676 238.499 270.969 239.568 274.892 236.963L287.969 228.281C291.892 225.676 292.962 220.384 290.357 216.46L289.561 215.262Z" class="" fill="#000000" fill-opacity="1"></path><path d="M454.28 53.324L442.44 61.185L449.675 72.085L469.295 59.058L459.06 43.64C457.633 41.492 454.736 40.907 452.588 42.333C452.317 42.515 452.065 42.723 451.836 42.955C450.285 44.575 450.082 47.06 451.35 48.91Z" class="" fill="#000000" fill-opacity="1"></path><path d="M306.809 199.63L369.825 294.546L388.495 282.151L325.478 187.235Z" class="" fill="#000000" fill-opacity="1"></path><path d="M348.874 163.55L434.792 106.506C440.854 102.482 442.505 94.306 438.481 88.244L427.222 71.287L319.354 142.904L330.612 159.861C334.634 165.918 342.803 167.572 348.864 163.556Z" class="" fill="#fff" fill-opacity="1"></path></g></g></svg>