<svg xmlns="http://www.w3.org/2000/svg" viewBox="0 0 512 512" style="height: 512px; width: 512px;"><rect fill="#000000" fill-opacity="1" height="512" width="512" rx="32" ry="32"></rect><g class="" transform="translate(0,0)" style=""><g><path d="M218.5 26.8C182.5 26.8 145.9 36.85 116.4 54.99C74.64 80.64 47.03 121.2 51.13 172.7L60.12 200.4C75.93 157.8 102.1 121.2 135.9 96.63C172.8 69.74 219 57.52 268.6 67.58L258.4 31.26C247.7 28.83 236.8 27.37 225.7 26.94C223.3 26.84 220.9 26.8 218.5 26.8Z" class="" fill="#fff" fill-opacity="1"></path><path d="M279.5 39.82L288 69.86L306 69.32L302.6 48.39Z" class="" fill="#fff" fill-opacity="1"></path><path d="M321.9 55.15L325.5 77.33C331.3 80.87 335 84.11 336.8 86.62C339.8 90.73 339.6 92.23 337.4 96.43C333 104.9 313.9 118.7 290.5 132.1C267.1 145.5 239.7 159.5 218.1 175C207.2 182.8 197.8 190.9 190.9 200C184.1 209.1 179.8 219.7 181.1 231C188.1 293.8 242.9 336.2 294.2 363.1C324.9 379.1 354.8 389.8 373.9 395.8C376.7 398.5 385.8 407 397.7 415.6C411.9 425.8 429.2 437.1 447.2 434.6C457.7 433.2 468.6 427.8 477.4 420.2C481.8 416.4 485.6 411.9 488.1 406.5C490.5 401.1 491.4 394.4 488.9 388.1C484.3 376.4 472.6 370.8 461 368.7C455.1 367.7 449 367.4 442.7 367.5C436.5 367.7 430.1 368.2 423.9 369.1C403.8 371.7 385.7 376.8 379.3 378.7C360.9 372.9 332 362.6 302.6 347.1C253.6 321.4 204.9 282.3 198.9 229C198.3 223.3 200.3 217.5 205.3 210.8C210.4 204 218.6 196.8 228.5 189.7C248.5 175.4 275.5 161.4 299.4 147.7C323.3 134.1 344.4 121.9 353.4 104.7C357.9 96.13 357.7 84.79 351.4 76.09C345.5 67.96 336 61.51 321.9 55.15Z" class="" fill="#fff" fill-opacity="1"></path><path d="M407.3 152.2C394.5 152.2 384.3 162.4 384.3 175.2C384.3 188 394.5 198.2 407.3 198.2C420.1 198.2 430.3 188 430.3 175.2C430.3 162.4 420.1 152.2 407.3 152.2Z" class="" fill="#000000" fill-opacity="1"></path><path d="M336.3 191.2C323.5 191.2 313.3 201.4 313.3 214.2C313.3 227 323.5 237.2 336.3 237.2C349.1 237.2 359.3 227 359.3 214.2C359.3 201.4 349.1 191.2 336.3 191.2Z" class="" fill="#000000" fill-opacity="1"></path><path d="M39.66 195.7L26.87 230.5L43.4 245L50.29 228.4Z" class="" fill="#fff" fill-opacity="1"></path><path d="M432.3 223.2C419.5 223.2 409.3 233.4 409.3 246.2C409.3 259 419.5 269.2 432.3 269.2C445.1 269.2 455.3 259 455.3 246.2C455.3 233.4 445.1 223.2 432.3 223.2Z" class="selected" fill="#000000" fill-opacity="1"></path><path d="M22.84 251C21.58 259.4 21.28 269 22.04 279.4C23.6 300.6 30.32 324.7 46.47 344.5C92.34 400.8 128.8 420 168.2 426.7C204.1 432.7 241.4 429.2 293.4 437.1C297.1 442 302.6 449.1 309.3 456.4C321.2 469.4 335.8 483.9 354 485.1C364.6 485.7 376.4 482.6 386.5 476.9C391.5 474 396.2 470.5 399.7 465.7C403.1 460.9 405.3 454.4 404.2 447.7C402 435.3 391.7 427.6 380.7 423.2C369.7 418.9 356.8 417 344.3 416.1C338.1 415.7 331.9 415.5 326.2 415.5C308.9 415.5 295.5 417 295.5 417L286.7 417.9C237.6 411.5 202 414.1 171.2 408.9C135.4 402.9 104.7 387.4 60.42 333.1C47.28 317 41.35 296.5 39.99 278C39.68 273.8 39.66 269.8 39.82 265.9Z" class="" fill="#fff" fill-opacity="1"></path><path d="M443.1 385.6L447.1 385.6C451 385.6 454.6 385.9 457.8 386.5C466.4 388 470.5 390.7 472.1 394.7C472.6 396 472.7 397 471.7 399.1C470.7 401.2 468.6 404 465.6 406.6C459.6 411.8 450.3 416 444.8 416.8C437.4 417.8 421.2 410.3 408.2 401C404.2 398.1 400.7 395.2 397.4 392.5C405.5 390.5 415.7 388.3 426.3 386.9C432 386.2 437.7 385.7 443.1 385.6Z" class="" fill="#fff" fill-opacity="1"></path><path d="M326.3 433.5C331.6 433.5 337.3 433.7 343.1 434.1C354.5 434.9 366 436.8 374.1 440C382.1 443.1 385.7 446.6 386.4 450.9C386.7 452.2 386.5 453.2 385.1 455.1C383.7 457 381.1 459.3 377.6 461.2C370.7 465.2 360.7 467.5 355.2 467.1C347.8 466.6 333.4 456 322.6 444.3C319.2 440.6 316.3 437.1 313.7 433.8C317.5 433.7 321.6 433.5 326.3 433.5Z" class="" fill="#fff" fill-opacity="1"></path></g></g></svg>